<svg xmlns="http://www.w3.org/2000/svg" xmlns:xlink="http://www.w3.org/1999/xlink" width="176" zoomAndPan="magnify" viewBox="0 0 132 149.999998" height="200" preserveAspectRatio="xMidYMid meet" version="1.0"><defs><clipPath id="ca66bdf22a"><path d="M 0 0 L 131.25 0 L 131.25 150 L 0 150 Z M 0 0 " clip-rule="nonzero"/></clipPath><clipPath id="a51e7df1d8"><path d="M 24.71875 32.183594 L 102.71875 32.183594 L 102.71875 110.183594 L 24.71875 110.183594 Z M 24.71875 32.183594 " clip-rule="nonzero"/></clipPath></defs><g clip-path="url(#ca66bdf22a)"><path fill="#dd0000" d="M 11.933594 134.675781 L -0.0390625 0.421875 L 131.488281 0.421875 L 119.507812 134.65625 L 65.640625 149.582031 Z M 11.933594 134.675781 " fill-opacity="1" fill-rule="nonzero"/></g><path fill="#ff0000" d="M 109.246094 126.105469 L 119.488281 11.402344 L 65.726562 11.402344 L 65.726562 138.175781 Z M 109.246094 126.105469 " fill-opacity="1" fill-rule="nonzero"/><path fill="#dd0000" d="M 65.667969 27.863281 L 24.433594 27.863281 L 28.875 77.65625 L 65.726562 77.65625 L 65.726562 61.191406 L 43.9375 61.191406 L 42.433594 44.332031 L 65.726562 44.332031 L 65.726562 27.863281 Z M 65.726562 103.898438 L 65.65625 103.917969 L 47.316406 98.96875 L 46.152344 85.835938 L 29.613281 85.835938 L 31.921875 111.6875 L 65.648438 121.011719 L 65.722656 120.988281 Z M 65.726562 103.898438 " fill-opacity="1" fill-rule="nonzero"/><path fill="#ff0000" d="M 65.667969 77.65625 L 85.945312 77.65625 L 84.082031 99.003906 L 65.714844 103.960938 L 65.714844 121.089844 L 99.472656 111.734375 L 103.992188 61.183594 L 65.722656 61.183594 Z M 106.519531 32.285156 L 106.910156 27.863281 L 65.660156 27.863281 L 65.660156 44.328125 L 105.429688 44.328125 L 105.757812 40.628906 Z M 106.519531 32.285156 " fill-opacity="1" fill-rule="nonzero"/><g clip-path="url(#a51e7df1d8)"><path fill="#ffffff" d="M 63.84375 32.183594 C 62.5625 32.183594 61.28125 32.246094 60.007812 32.375 C 58.734375 32.5 57.464844 32.6875 56.210938 32.9375 C 54.953125 33.1875 53.710938 33.496094 52.484375 33.871094 C 51.257812 34.242188 50.054688 34.671875 48.871094 35.164062 C 47.6875 35.652344 46.53125 36.199219 45.398438 36.804688 C 44.269531 37.410156 43.171875 38.066406 42.105469 38.777344 C 41.042969 39.492188 40.011719 40.253906 39.023438 41.066406 C 38.03125 41.878906 37.085938 42.738281 36.179688 43.644531 C 35.273438 44.550781 34.414062 45.5 33.601562 46.488281 C 32.785156 47.480469 32.023438 48.507812 31.3125 49.574219 C 30.601562 50.636719 29.941406 51.734375 29.339844 52.867188 C 28.734375 53.996094 28.1875 55.152344 27.699219 56.335938 C 27.207031 57.519531 26.777344 58.726562 26.402344 59.953125 C 26.03125 61.175781 25.722656 62.417969 25.472656 63.675781 C 25.222656 64.933594 25.035156 66.199219 24.90625 67.472656 C 24.78125 68.75 24.71875 70.027344 24.71875 71.308594 C 24.71875 72.589844 24.78125 73.867188 24.90625 75.144531 C 25.035156 76.417969 25.222656 77.683594 25.472656 78.941406 C 25.722656 80.199219 26.03125 81.4375 26.402344 82.664062 C 26.777344 83.890625 27.207031 85.097656 27.699219 86.28125 C 28.1875 87.464844 28.734375 88.621094 29.339844 89.75 C 29.941406 90.878906 30.601562 91.976562 31.3125 93.042969 C 32.023438 94.109375 32.785156 95.136719 33.601562 96.128906 C 34.414062 97.117188 35.273438 98.066406 36.179688 98.972656 C 37.085938 99.878906 38.03125 100.738281 39.023438 101.550781 C 40.011719 102.363281 41.042969 103.125 42.105469 103.835938 C 43.171875 104.550781 44.269531 105.207031 45.398438 105.8125 C 46.53125 106.414062 47.6875 106.960938 48.871094 107.453125 C 50.054688 107.945312 51.257812 108.375 52.484375 108.746094 C 53.710938 109.117188 54.953125 109.429688 56.210938 109.679688 C 57.464844 109.929688 58.734375 110.117188 60.007812 110.242188 C 61.28125 110.367188 62.5625 110.429688 63.84375 110.429688 C 65.125 110.429688 66.402344 110.367188 67.675781 110.242188 C 68.953125 110.117188 70.21875 109.929688 71.476562 109.679688 C 72.730469 109.429688 73.972656 109.117188 75.199219 108.746094 C 76.425781 108.375 77.628906 107.945312 78.8125 107.453125 C 79.996094 106.960938 81.15625 106.414062 82.285156 105.8125 C 83.414062 105.207031 84.511719 104.550781 85.578125 103.835938 C 86.644531 103.125 87.671875 102.363281 88.660156 101.550781 C 89.652344 100.738281 90.601562 99.878906 91.507812 98.972656 C 92.414062 98.066406 93.273438 97.117188 94.085938 96.128906 C 94.898438 95.136719 95.660156 94.109375 96.371094 93.042969 C 97.082031 91.976562 97.742188 90.878906 98.347656 89.75 C 98.949219 88.621094 99.496094 87.464844 99.988281 86.28125 C 100.476562 85.097656 100.910156 83.890625 101.28125 82.664062 C 101.652344 81.4375 101.964844 80.199219 102.214844 78.941406 C 102.464844 77.683594 102.652344 76.417969 102.777344 75.144531 C 102.902344 73.867188 102.964844 72.589844 102.964844 71.308594 C 102.964844 70.027344 102.898438 68.75 102.773438 67.472656 C 102.648438 66.199219 102.457031 64.933594 102.207031 63.679688 C 101.957031 62.421875 101.644531 61.179688 101.273438 59.957031 C 100.898438 58.730469 100.46875 57.523438 99.976562 56.34375 C 99.488281 55.160156 98.9375 54.003906 98.335938 52.871094 C 97.730469 51.742188 97.074219 50.644531 96.359375 49.582031 C 95.648438 48.515625 94.886719 47.488281 94.074219 46.5 C 93.261719 45.507812 92.402344 44.5625 91.496094 43.65625 C 90.589844 42.75 89.640625 41.890625 88.652344 41.078125 C 87.660156 40.265625 86.632812 39.5 85.570312 38.789062 C 84.503906 38.078125 83.40625 37.417969 82.277344 36.816406 C 81.148438 36.210938 79.992188 35.664062 78.808594 35.171875 C 77.625 34.683594 76.421875 34.25 75.195312 33.878906 C 73.96875 33.503906 72.730469 33.195312 71.472656 32.941406 C 70.214844 32.691406 68.949219 32.503906 67.675781 32.375 C 66.402344 32.25 65.125 32.1875 63.84375 32.183594 Z M 83.328125 72.949219 L 53.519531 88.632812 C 53.25 88.753906 52.960938 88.816406 52.664062 88.820312 C 52.316406 88.828125 51.992188 88.742188 51.695312 88.558594 C 51.417969 88.390625 51.195312 88.160156 51.039062 87.875 C 50.878906 87.589844 50.800781 87.285156 50.800781 86.957031 L 50.800781 55.660156 C 50.800781 55.332031 50.878906 55.027344 51.039062 54.738281 C 51.195312 54.453125 51.417969 54.226562 51.695312 54.058594 C 51.980469 53.898438 52.285156 53.816406 52.609375 53.816406 C 52.933594 53.816406 53.238281 53.898438 53.519531 54.058594 L 83.328125 69.742188 C 83.640625 69.898438 83.890625 70.121094 84.074219 70.417969 C 84.257812 70.710938 84.351562 71.035156 84.351562 71.382812 C 84.351562 71.730469 84.257812 72.054688 84.074219 72.347656 C 83.890625 72.644531 83.640625 72.867188 83.328125 73.023438 Z M 83.328125 72.949219 " fill-opacity="1" fill-rule="nonzero"/></g></svg>